<?xml version="1.0" standalone="no"?>
<!DOCTYPE svg PUBLIC "-//W3C//DTD SVG 20010904//EN"
 "http://www.w3.org/TR/2001/REC-SVG-20010904/DTD/svg10.dtd">
<svg version="1.0" xmlns="http://www.w3.org/2000/svg"
 width="597.000000pt" height="470.000000pt" viewBox="0 0 597.000000 470.000000"
 preserveAspectRatio="xMidYMid meet">
<metadata>
Created by potrace 1.16, written by Peter Selinger 2001-2019
</metadata>
<g transform="translate(0.000000,470.000000) scale(0.100000,-0.100000)"
fill="#000000" stroke="none">
<path d="M5360 4661 c0 -5 -25 -12 -55 -16 -30 -3 -55 -11 -55 -16 0 -5 -7 -9
-15 -9 -8 0 -15 -7 -15 -15 0 -8 -9 -15 -20 -15 -26 0 -60 -30 -60 -53 0 -20
-22 -47 -39 -47 -7 0 -11 -23 -11 -55 0 -42 -3 -55 -15 -55 -12 0 -15 -18 -15
-105 0 -58 -4 -105 -9 -105 -5 0 -11 -12 -13 -27 l-3 -28 -129 0 c-95 0 -130
-3 -133 -12 -3 -7 -13 -13 -22 -13 -10 0 -27 -11 -37 -25 -10 -14 -23 -25 -29
-25 -14 0 -65 -62 -71 -87 -4 -13 -10 -23 -15 -23 -5 0 -9 -13 -9 -29 0 -16
-7 -36 -15 -45 -8 -8 -15 -31 -15 -50 0 -20 -4 -36 -9 -36 -5 0 -11 -18 -15
-40 -3 -22 -11 -40 -16 -40 -6 0 -10 -16 -10 -35 0 -22 -6 -38 -15 -41 -10 -4
-15 -20 -15 -45 0 -21 -4 -39 -9 -39 -5 0 -12 -22 -16 -50 -4 -27 -11 -50 -16
-50 -5 0 -9 -18 -9 -39 0 -25 -5 -41 -15 -45 -9 -3 -15 -19 -15 -41 0 -19 -4
-35 -9 -35 -5 0 -11 -18 -15 -40 -3 -22 -11 -40 -16 -40 -6 0 -10 -15 -10 -34
0 -22 -6 -36 -16 -40 -9 -3 -348 -6 -755 -6 -486 0 -739 -3 -739 -10 0 -6 -28
-10 -65 -10 -37 0 -65 4 -65 10 0 7 -185 10 -535 10 -501 0 -536 1 -541 17 -3
10 -12 30 -20 45 -8 14 -14 38 -14 52 0 14 -4 26 -10 26 -5 0 -12 16 -16 35
-3 19 -10 38 -15 41 -5 3 -9 21 -9 40 0 19 -4 34 -10 34 -5 0 -10 11 -10 25 0
16 -6 25 -15 25 -11 0 -15 11 -15 39 0 25 -5 41 -15 45 -9 3 -15 19 -15 41 0
19 -4 35 -10 35 -5 0 -10 11 -10 25 0 14 -7 28 -15 31 -8 4 -15 18 -15 34 0
28 -28 92 -42 98 -5 2 -8 19 -8 38 0 20 -6 37 -14 40 -7 3 -22 22 -32 42 -22
43 -38 62 -53 62 -6 0 -11 7 -11 15 0 9 -9 15 -25 15 -14 0 -25 4 -25 9 0 5
-12 12 -27 16 -15 3 -31 12 -35 18 -5 8 -40 12 -103 12 l-95 -1 -7 38 c-3 21
-9 38 -13 38 -5 0 -12 29 -15 65 -4 36 -11 68 -16 71 -5 3 -9 27 -9 55 0 27
-4 49 -10 49 -5 0 -10 16 -10 35 0 22 -6 38 -15 41 -8 4 -15 14 -15 24 0 26
-63 90 -89 90 -11 0 -21 5 -21 10 0 6 -16 10 -35 10 -22 0 -38 6 -41 15 -5 12
-24 15 -85 15 -64 0 -79 -3 -79 -15 0 -11 -11 -15 -40 -15 -22 0 -40 -4 -40
-10 0 -5 -7 -10 -16 -10 -24 0 -114 -95 -114 -119 0 -12 -6 -21 -15 -21 -11 0
-15 -11 -15 -40 0 -22 -4 -40 -9 -40 -5 0 -11 -18 -15 -40 -3 -22 -11 -40 -16
-40 -6 0 -10 -18 -10 -40 0 -29 -4 -40 -15 -40 -11 0 -15 -12 -15 -50 0 -27
-4 -50 -9 -50 -5 0 -11 -23 -13 -52 -3 -29 -11 -54 -17 -56 -7 -2 -11 -29 -11
-67 0 -47 -4 -64 -15 -69 -12 -4 -15 -32 -15 -161 0 -97 -4 -155 -10 -155 -6
0 -10 -37 -10 -90 0 -53 4 -90 10 -90 6 0 10 -58 10 -155 0 -129 3 -157 15
-161 12 -5 15 -27 15 -110 0 -86 -3 -104 -15 -104 -8 0 -15 -7 -15 -15 0 -8
-4 -15 -10 -15 -5 0 -10 -10 -10 -21 0 -12 -11 -32 -24 -44 -37 -34 -54 -149
-37 -246 8 -41 16 -76 20 -79 13 -11 41 -72 41 -91 0 -10 5 -19 10 -19 6 0 10
-11 10 -25 0 -16 6 -25 15 -25 9 0 15 -9 15 -24 0 -13 7 -26 15 -30 8 -3 15
-17 15 -31 0 -14 5 -25 10 -25 6 0 10 -9 10 -20 0 -11 7 -23 15 -26 8 -4 15
-15 15 -26 0 -11 7 -26 15 -34 19 -20 19 -48 0 -68 -12 -11 -15 -42 -15 -140
0 -76 4 -126 10 -126 5 0 13 -18 16 -40 4 -22 10 -40 15 -40 5 0 9 -11 9 -25
0 -14 7 -28 15 -31 8 -4 15 -17 15 -30 0 -13 4 -24 9 -24 5 0 12 -11 15 -25 4
-14 11 -25 16 -25 6 0 10 -11 10 -25 0 -14 7 -28 15 -31 8 -4 15 -17 15 -30 0
-15 6 -24 15 -24 8 0 15 -7 15 -15 0 -8 5 -15 10 -15 6 0 10 -11 10 -25 0 -16
6 -25 15 -25 8 0 15 -7 15 -15 0 -8 4 -15 9 -15 5 0 13 -10 16 -21 7 -23 192
-209 207 -209 4 0 8 -4 8 -9 0 -5 23 -32 50 -60 l50 -51 0 -84 c0 -65 3 -85
15 -90 9 -3 15 -19 15 -41 0 -19 5 -35 10 -35 6 0 10 -10 10 -21 0 -12 14 -35
30 -51 17 -15 30 -34 30 -40 0 -7 41 -51 90 -99 57 -55 90 -95 90 -108 0 -12
6 -21 15 -21 8 0 15 -7 15 -15 0 -8 7 -15 15 -15 8 0 15 -5 15 -11 0 -14 25
-39 39 -39 6 0 11 -7 11 -15 0 -8 7 -15 15 -15 8 0 15 -5 15 -10 0 -6 11 -22
25 -36 14 -14 25 -34 25 -44 0 -11 5 -20 11 -20 14 0 39 -25 39 -39 0 -6 7
-11 15 -11 8 0 15 -4 15 -10 0 -7 582 -10 1726 -10 l1725 0 61 60 c34 33 70
63 82 66 24 8 46 28 46 43 0 6 7 11 15 11 8 0 15 7 15 15 0 8 5 15 11 15 14 0
39 25 39 39 0 6 7 11 15 11 8 0 15 7 15 15 0 8 6 15 13 15 7 0 19 9 27 20 8
11 20 20 27 20 7 0 13 7 13 15 0 8 7 15 15 15 8 0 15 7 15 15 0 8 5 15 10 15
6 0 10 7 10 15 0 8 7 15 15 15 11 0 15 12 15 49 0 34 4 51 15 55 13 4 15 39
15 226 0 140 4 220 10 220 6 0 10 7 10 15 0 8 7 15 15 15 8 0 15 7 15 15 0 8
5 15 11 15 14 0 39 25 39 39 0 6 7 11 15 11 8 0 15 9 15 20 0 11 18 37 40 57
22 21 40 44 40 51 0 7 11 23 25 36 14 13 25 32 25 44 0 11 7 22 15 26 8 3 15
17 15 31 0 14 4 25 9 25 5 0 12 11 15 25 4 14 11 25 16 25 6 0 10 11 10 25 0
14 4 25 9 25 5 0 12 13 16 30 4 16 10 30 15 30 4 0 10 18 14 40 3 22 11 40 16
40 6 0 10 23 10 50 0 28 4 50 9 50 5 0 11 64 13 142 2 102 6 143 16 146 6 2
12 10 12 18 0 8 7 14 15 14 9 0 15 9 15 25 0 14 4 25 9 25 5 0 12 11 15 25 4
14 11 25 16 25 6 0 10 11 10 25 0 14 7 28 15 31 8 4 15 17 15 30 0 13 4 24 9
24 5 0 12 11 15 25 4 14 11 25 16 25 6 0 10 11 10 25 0 14 7 28 15 31 8 4 15
17 15 29 0 13 6 25 13 28 17 5 17 299 0 305 -7 2 -13 10 -13 18 0 8 -7 14 -15
14 -8 0 -15 9 -15 20 0 12 -11 31 -25 44 -23 22 -25 29 -25 125 0 55 4 101 9
101 4 0 11 71 13 157 4 102 10 159 17 161 7 2 11 36 11 92 0 56 -4 90 -11 92
-7 2 -13 59 -17 161 -2 86 -9 157 -13 157 -5 0 -9 29 -9 65 0 51 -3 65 -15 65
-12 0 -15 13 -15 55 0 30 -4 55 -9 55 -5 0 -12 23 -16 50 -4 28 -11 50 -16 50
-5 0 -9 18 -9 40 0 22 -4 40 -10 40 -5 0 -13 18 -16 40 -4 22 -10 40 -15 40
-5 0 -12 18 -15 40 -4 22 -11 43 -15 46 -5 3 -9 21 -9 40 0 24 -5 34 -15 34
-8 0 -15 5 -15 11 0 14 -55 69 -69 69 -6 0 -11 5 -11 11 0 21 -27 37 -78 44
-29 4 -52 11 -52 16 0 5 -22 9 -50 9 -27 0 -50 -4 -50 -9z m115 -110 c78 -35
94 -66 167 -311 79 -267 95 -347 110 -582 14 -207 2 -452 -33 -668 -31 -188
-30 -202 3 -211 46 -12 85 -47 108 -95 39 -80 31 -106 -133 -425 l-146 -284
24 -49 c33 -66 32 -97 -10 -211 -87 -241 -193 -414 -335 -548 l-90 -85 0 -249
c0 -240 -1 -251 -22 -291 -34 -61 -429 -409 -480 -423 -25 -6 -142 -9 -311 -7
-246 3 -275 5 -300 22 -27 18 -28 18 -76 -3 -47 -20 -67 -21 -321 -21 -251 0
-275 2 -319 20 l-47 21 -45 -20 c-42 -20 -64 -21 -476 -21 -370 0 -438 2 -472
16 -36 14 -43 14 -85 0 -39 -13 -101 -16 -354 -16 -279 0 -311 2 -349 19 -32
15 -96 82 -291 305 -284 324 -280 317 -269 472 l6 83 -108 95 c-143 126 -198
187 -282 315 -77 116 -191 339 -210 413 -16 58 -2 113 41 162 17 18 30 40 30
47 0 8 -58 127 -129 266 -72 138 -133 267 -136 285 -15 78 38 171 115 202 47
19 46 14 20 161 -57 329 -62 676 -15 980 12 78 105 416 137 497 15 41 81 95
129 108 80 22 178 -22 213 -94 9 -19 26 -86 37 -148 18 -106 65 -290 88 -351
13 -34 23 -34 69 2 51 40 110 55 165 40 51 -13 102 -50 122 -88 30 -59 179
-455 252 -669 71 -210 77 -223 97 -216 12 5 270 10 574 11 537 3 553 3 600
-17 l47 -20 40 20 c39 20 55 20 824 20 630 -1 786 2 792 12 4 7 61 186 128
398 67 212 132 414 143 450 50 156 199 208 312 109 24 -22 48 -49 51 -59 9
-28 34 -25 45 6 25 66 63 241 80 370 10 78 25 154 33 170 46 89 152 126 242
85z"/>
<path d="M5400 4359 c0 -3 -5 -43 -10 -89 -36 -299 -130 -573 -327 -962 l-108
-213 -7 115 c-15 245 -41 576 -47 592 -4 10 -32 -65 -70 -190 -110 -354 -301
-932 -309 -932 -4 0 -39 32 -77 70 l-69 70 -252 0 c-238 0 -252 -1 -269 -20
-23 -25 -35 -25 -35 0 0 20 -5 20 -457 18 l-458 -3 -37 -155 c-37 -154 -37
-156 -38 -372 l0 -218 -25 0 -25 0 0 214 0 213 -41 109 c-23 60 -50 133 -61
162 l-19 52 -249 0 c-190 0 -249 -3 -253 -12 -4 -10 -7 -10 -18 0 -10 9 -75
12 -254 12 l-240 0 -94 -75 c-52 -42 -98 -72 -102 -68 -4 4 -53 145 -109 313
-55 168 -142 413 -193 545 l-92 240 -7 -105 c-4 -58 -11 -211 -15 -340 l-8
-235 -97 190 c-184 363 -294 664 -343 944 -8 46 -16 86 -18 88 -7 7 -108 -346
-123 -427 -26 -154 -37 -396 -25 -577 25 -372 81 -613 227 -978 7 -19 -14 -2
-206 164 -41 36 -83 72 -94 80 -20 17 57 -140 193 -397 82 -154 146 -257 228
-364 24 -32 40 -58 36 -58 -5 0 -69 20 -143 45 -73 25 -136 43 -138 40 -8 -8
100 -222 163 -324 70 -113 150 -200 313 -339 l124 -105 -7 -123 c-7 -110 -5
-127 11 -151 10 -16 112 -135 226 -266 l209 -237 277 0 277 0 53 65 c29 36 56
65 60 65 5 0 32 -29 62 -65 l54 -65 397 0 397 0 60 65 c33 36 63 65 68 65 5 0
35 -29 67 -65 l58 -65 242 0 242 0 59 70 c40 49 62 68 70 61 6 -5 34 -37 61
-70 l50 -61 235 0 235 1 182 162 182 162 1 270 0 270 107 100 c122 114 172
177 236 302 49 95 107 235 107 258 0 10 -24 6 -102 -21 -56 -18 -104 -32 -106
-29 -2 2 18 35 46 72 27 37 74 106 103 153 53 86 312 580 307 585 -2 2 -73
-57 -158 -130 -85 -74 -156 -133 -157 -131 -1 1 15 44 37 96 79 194 144 447
177 697 23 179 23 555 -1 716 -17 118 -146 582 -146 526z m-4804 -568 c42
-138 102 -279 215 -506 80 -160 318 -589 355 -639 24 -33 27 -9 11 76 -21 105
-44 300 -52 446 -10 165 8 151 73 -59 29 -94 95 -294 147 -443 l95 -273 0
-251 c0 -139 -4 -252 -8 -252 -9 0 -83 100 -159 215 -123 185 -343 592 -497
923 -55 117 -104 212 -109 212 -25 0 27 -254 88 -430 73 -211 225 -485 376
-680 34 -44 59 -83 56 -86 -9 -9 -83 33 -141 80 -30 25 -57 42 -60 39 -7 -7 4
-25 146 -247 59 -92 108 -172 108 -177 0 -5 -11 -9 -24 -9 -42 0 -47 -18 -45
-180 0 -83 -2 -154 -5 -157 -12 -13 -234 124 -308 191 -43 38 -50 62 -15 52
104 -30 259 -66 266 -62 5 3 -37 52 -93 108 -105 107 -210 239 -290 368 -71
116 -66 117 68 15 114 -87 162 -118 176 -113 5 2 -20 48 -57 103 -193 293
-325 665 -379 1070 -33 249 -16 820 24 781 3 -4 20 -55 38 -115z m4854 -53
c16 -163 8 -509 -15 -658 -62 -401 -187 -743 -374 -1025 -90 -136 -76 -135
115 7 85 64 114 79 114 60 0 -12 -118 -192 -173 -262 -75 -97 -175 -207 -219
-242 l-40 -31 -64 64 c-35 35 -64 69 -64 76 0 7 51 93 114 190 112 176 136
216 136 227 0 13 -28 4 -45 -14 -30 -33 -114 -82 -130 -76 -12 4 -5 19 33 68
220 282 389 632 450 934 26 125 30 166 17 171 -6 2 -53 -86 -104 -194 -117
-250 -298 -594 -413 -788 -109 -182 -224 -345 -243 -345 -13 0 -15 37 -15 241
l0 241 79 227 c43 124 110 322 147 438 72 224 94 259 94 156 0 -87 -18 -272
-40 -411 -26 -158 -26 -162 -1 -137 30 31 232 389 341 605 119 237 178 374
220 511 18 57 34 111 37 119 12 39 31 -30 43 -152z m-3292 -1081 l72 -72 0
-175 0 -175 -72 -72 -72 -73 -133 0 -133 0 0 -170 0 -170 -155 0 -155 0 0 414
0 415 48 44 c26 24 63 58 82 75 l35 31 205 1 206 0 72 -73z m412 -302 l0 -375
203 -2 202 -3 3 -112 3 -113 -288 0 -287 0 -68 67 -68 67 0 423 0 423 150 0
150 0 0 -375z m750 -1 l0 -375 53 3 52 3 3 373 2 372 150 0 150 0 0 -420 0
-420 -72 -70 -73 -69 -215 -1 -216 0 -67 68 -67 67 0 415 c0 228 0 418 0 423
0 4 68 7 150 7 l150 0 0 -376z m1088 303 l72 -72 0 -78 0 -77 -149 0 -150 0
-3 33 c-3 31 -4 32 -55 35 l-53 3 0 -75 0 -76 133 0 133 0 72 -73 72 -72 0
-160 0 -159 -69 -68 -69 -68 -218 0 -218 0 -68 67 -68 67 0 83 0 83 150 0 150
0 0 -35 0 -35 55 0 55 0 0 70 0 70 -132 0 -133 0 -72 72 -73 72 0 161 0 160
72 72 72 73 211 0 211 0 72 -73z m-2888 -1342 l0 -365 55 0 55 0 0 365 0 365
145 0 145 0 0 -407 0 -408 -72 -72 -72 -73 -201 0 -200 0 -72 71 -73 72 0 408
0 409 145 0 145 0 0 -365z m730 0 l0 -365 200 0 201 0 -3 -112 -3 -113 -270
-3 -269 -2 -73 72 -73 72 0 408 0 408 145 0 145 0 0 -365z m1025 250 l0 -110
-97 -3 -98 -3 -2 -362 -3 -362 -145 0 -145 0 -3 363 -2 362 -100 0 -100 0 0
115 0 115 348 -2 347 -3 0 -110z m763 41 l72 -74 0 -131 0 -131 -61 -47 c-48
-37 -57 -49 -47 -58 8 -5 35 -28 61 -49 l47 -39 -2 -176 -3 -176 -147 -3 -148
-3 0 156 0 155 -50 0 -49 0 -3 -152 -3 -153 -142 -3 -143 -3 0 481 0 480 273
0 274 0 71 -74z m730 1 l72 -73 -2 -404 -3 -405 -145 0 -145 0 -3 133 -3 132
-49 0 -49 0 -3 -132 -3 -133 -142 -3 -143 -3 0 413 0 412 67 68 67 68 206 0
206 0 72 -73z m341 -11 c-53 -50 -176 -138 -212 -152 -15 -5 -17 2 -17 49 0
31 -3 62 -6 71 -5 12 0 16 17 17 13 0 76 15 139 33 63 19 120 34 125 34 6 1
-15 -23 -46 -52z"/>
<path d="M1820 2410 l0 -90 50 0 50 0 0 90 0 90 -50 0 -50 0 0 -90z"/>
<path d="M3710 1365 l0 -85 50 0 50 0 0 85 0 85 -50 0 -50 0 0 -85z"/>
<path d="M4440 1330 l0 -120 50 0 50 0 0 120 0 120 -50 0 -50 0 0 -120z"/>
</g>
</svg>
